<svg xmlns="http://www.w3.org/2000/svg" xmlns:xlink="http://www.w3.org/1999/xlink" width="134.599" height="134.6" viewBox="0 0 134.599 134.6">
  <defs>
    <linearGradient id="linear-gradient" y1="0.5" x2="1" y2="0.5" gradientUnits="objectBoundingBox">
      <stop offset="0" stop-color="#fff"/>
      <stop offset="0" stop-color="#169c94"/>
      <stop offset="1" stop-color="#169c94"/>
    </linearGradient>
  </defs>
  <g id="Group_4" data-name="Group 4" transform="translate(-91.038 -212.183)">
    <g id="Group_2" data-name="Group 2" transform="translate(92.038 213.183)">
      <path id="Path_1" data-name="Path 1" d="M228.221,286.279a63.093,63.093,0,0,1-125.562,8.847c-.055-.375-.1-.754-.148-1.133s-.087-.735-.125-1.1q-.193-1.834-.276-3.7l-.029-.635c-.026-.754-.039-1.515-.039-2.275,0-.247,0-.494.006-.738,0-.08,0-.157,0-.235q.029-1.983.177-3.934a63.1,63.1,0,0,1,111.58-35.236c.237.292.475.584.709.88.09.109.177.218.26.331q1.425,1.81,2.712,3.723c.083.122.164.244.244.366q.525.785,1.02,1.589c.038.061.077.122.116.186a62.716,62.716,0,0,1,5.645,11.71q.327.91.626,1.829.953,2.931,1.621,5.979A63.282,63.282,0,0,1,228.221,286.279Z" transform="translate(-98.832 -219.977)" fill="#fff"/>
      <g id="Group_1" data-name="Group 1" transform="translate(3.211 15.861)">
        <path id="Path_2" data-name="Path 2" d="M225.972,300.85a1.106,1.106,0,0,1-.507-1.983c.18-.122.667.112,1.3.629q-.664-3.047-1.621-5.979a5.049,5.049,0,0,0-1.341,1.467c-.847,1.078.632,6.078-.6,5.808-.626-.173-3-3.161-2.843-2.227.1.577.674.85,1.178.985,2.294,1.091-1.7,9.017-.1,10.975a25.267,25.267,0,0,1,1.694,2.307c.254.918-.873,1.158-1.518,1.258-.655.6.112,1.563.876,1.354.95.016,2.041-.777,1.845-1.82-.193-1.685-1.383-3-2.323-4.332C221.38,308.533,226.659,301.556,225.972,300.85Zm-54.657-18.918c-.01,0-.016.016-.026.029C171.366,281.978,171.347,281.932,171.315,281.932Zm-.764.122a.018.018,0,0,0,.013,0,.667.667,0,0,0,.109.013.352.352,0,0,0,.1-.016C170.7,282.054,170.586,282.051,170.551,282.054Zm.764-.122c-.01,0-.016.016-.026.029C171.366,281.978,171.347,281.932,171.315,281.932Zm-.764.122a.018.018,0,0,0,.013,0,.667.667,0,0,0,.109.013.352.352,0,0,0,.1-.016C170.7,282.054,170.586,282.051,170.551,282.054Zm21.95-11.5a1.072,1.072,0,0,0,.34-.369C192.373,270.492,192.164,270.672,192.5,270.55Zm0,0a1.072,1.072,0,0,0,.34-.369C192.373,270.492,192.164,270.672,192.5,270.55Zm-21.186,11.382c-.01,0-.016.016-.026.029C171.366,281.978,171.347,281.932,171.315,281.932ZM192.5,270.55a1.072,1.072,0,0,0,.34-.369C192.373,270.492,192.164,270.672,192.5,270.55Zm-21.186,11.382c-.01,0-.016.016-.026.029C171.366,281.978,171.347,281.932,171.315,281.932ZM192.5,270.55a1.072,1.072,0,0,0,.34-.369C192.373,270.492,192.164,270.672,192.5,270.55Zm26.369,9.428c-.382,1.409-1.412,5.574-1.823,5.821a2.336,2.336,0,0,0,.671,2.31c.18.254,2.208-1.989,2.593-2.458-1.062,1.467-2.259,3.664-2.648,4.316-.01-.17-.067-.3-.276-.218-.911.449-1.13,1.537-1.476,2.407.01-.158.01-.311.016-.465l.34-4.169c-.237-.819.356-1.544.562-2.3.2-.455,1.277-4.611,1.925-5.433q-.5-.8-1.02-1.589c-.247.334-.481.674-.7,1.024.148-.462.3-.927.456-1.389q-1.285-1.911-2.712-3.723c-1.277,2.4-2.4,4.682-3.854,7.188-.408.517-7.15,15.9-7.41,16.552-.157,1.925,3.164-1.412,4.936-4.592-1.3,3.228-3.305,7.616-3.363,9.1.022,2.914,4.682-.122,4.5,2.789-.132.667.539.122.616-.205a13.522,13.522,0,0,0,.3-2.105c.177-1.255.231-2.542.452-3.787a25.013,25.013,0,0,0,1.229-2.924c.465-1.8.96-3.584,1.463-5.372a26.622,26.622,0,0,0,.205,6.945c-.369.992-.745,1.983-1.107,2.978-.578.315.071,1.274.6.985a5.538,5.538,0,0,0,.876-2.285,7.682,7.682,0,0,0,2.651,4.169,1.908,1.908,0,0,0,2,.369.958.958,0,0,0-.247-1.64,1.591,1.591,0,0,1-.52-1.791,30.849,30.849,0,0,1,.452-4.111,23.7,23.7,0,0,1,1.38-3.828.986.986,0,0,1,1.518-.491c.485.376.937.979,1.627.915a1.71,1.71,0,0,0,1.441-1.287A62.716,62.716,0,0,0,218.87,279.978Zm-2.725,15.772a15.073,15.073,0,0,1-.52,1.829,13.054,13.054,0,0,1,.016-2.349,43.522,43.522,0,0,1,1.72-4.319C216.977,292.529,216.611,294.153,216.146,295.751Zm-44.831-13.818c-.01,0-.016.016-.026.029C171.366,281.978,171.347,281.932,171.315,281.932ZM192.5,270.55a1.072,1.072,0,0,0,.34-.369C192.373,270.492,192.164,270.672,192.5,270.55Zm-21.186,11.382c-.01,0-.016.016-.026.029C171.366,281.978,171.347,281.932,171.315,281.932ZM192.5,270.55a1.072,1.072,0,0,0,.34-.369C192.373,270.492,192.164,270.672,192.5,270.55Zm-21.186,11.382c-.01,0-.016.016-.026.029C171.366,281.978,171.347,281.932,171.315,281.932ZM192.5,270.55a1.072,1.072,0,0,0,.34-.369C192.373,270.492,192.164,270.672,192.5,270.55Zm-21.186,11.382c-.01,0-.016.016-.026.029C171.366,281.978,171.347,281.932,171.315,281.932ZM192.5,270.55a1.072,1.072,0,0,0,.34-.369C192.373,270.492,192.164,270.672,192.5,270.55Zm21.308,2.355a15.6,15.6,0,0,0-1.014,1.386c-1.534,2.962.494-1.434-1.887,2.558-.032.234-.093.475-.135.709-.879,1.823-2.269,5.01-2.927,5.469-.915.777-2,2.8-3.1,3.347-.831-.077.035.189-.353.6a48.4,48.4,0,0,1-3.267,6.931,59.818,59.818,0,0,1-4.387,6.476,5.7,5.7,0,0,1-3.241.52c-1.168-1.932-2.259-3.918-3.36-5.889-1.569-2.33-3.867-4-5.783-6.014-1.377-1.364-2.747-2.741-4.14-4.088.392-.716.78-1.6,1.12-1.791,1.563-1.82,3.1-3.662,4.727-5.423-.019.2-.042.4-.067.6-.029.7.334,1.418.822,1.489-.048.1-.077.17-.138.289.058-.1.119-.193.18-.289.016,0,.032.016.055.013.1.019-1.71,3.392-1.614,3.376l1.913-3.376c1.438-.382,1.832,8.215,3.02,7.025.465-.5,1.759-10.779,2.16-11.383.331-.328.831-.035.943.5.228.764.613,1.563,1.2,1.765a1.006,1.006,0,0,1,.671.629c-.276-.556-.119-1.364-.465-1.858a2.177,2.177,0,0,1-.616-1.643c0-.655.087-1.306.151-1.954.026-.177.061-.357.1-.533.045-.029.074-.035.122-.068.5-.6.934-.513,1.313-.151.048.513.1,1.024.122,1.544-.106,2.243-.327,4.467-.517,6.685a24.424,24.424,0,0,1-1.287,6.148c-.116.546-.481.889-.436,1.56.058.228.18-.035.218-.163.443-1.043.838-2.163,1.216-3.309.677-2.15,1.7-3.829,2.16-6.258a35.485,35.485,0,0,1,.78-4.211c1.643-1.068,5.446-5.09,5.85-4.265,2,4.085.616,1.861,4.291,5.523,1.521,2.522.4-.555-.1-1.682-.626-.658-.9-.943-1.008-1.046a.047.047,0,0,0-.01-.013l-.019-.019c-.006-.006-.013-.013-.013-.016a.011.011,0,0,1-.006,0l0,0,0,0c-.135-.148-.408-.443-.918-.988-1.942-4.451-4.884-7.522-6.877-8.623a.442.442,0,0,0-.164-.055,1.353,1.353,0,0,0-.9-.327,2.716,2.716,0,0,0-1.64.574h-.026c-5.52,6.373-11.12,12.866-16.633,19.242-.4.324-.68.828-1.081,1.149-.189-.18-.382-.357-.574-.533l-.042-.016-.039-.039c-2.25-2.237-5.173-2.3-6.89-3.854a4.506,4.506,0,0,0-2.692-.671c-.231,0-.388.013-.424.013-.058,0-.087.035-.109.1a.59.59,0,0,0-.315.013c-2.725,2.738-4.753,6.075-7.134,9.1-.2-.177-.42-.346-.642-.507-1.572-1.255-3.5-1.942-5.125-3.1.462-.885-.748.282-.86.713-1.2,1.152-1.919,3.08-2.872,4.278a71.716,71.716,0,0,1-7.394,11.193c-.254-.488-.459-.931-.6-1.284-1.9-4.695-13.972-13.709-15.2-14.5a1.816,1.816,0,0,0-.918-.164,5.314,5.314,0,0,0-.956.109.453.453,0,0,0-.093-.013c-.664,0-2.683,2.458-5.9,7.159-2.7,3.941-8.048,9.034-15.307,14.6q-1.459,1.122-2.487,1.977-.149,1.95-.177,3.934a23.6,23.6,0,0,1,2.882-3.026c1.627-1.113,2.461-1.682,2.638-1.749s-.308.359-1.325,1.229c-1.467,1.255-2.879,2.532-4.2,3.781-.006.244-.006.491-.006.738,0,.761.013,1.521.039,2.275a3.985,3.985,0,0,0,1.226-.9c.459-.469,1.858-.488,2.2-1.133a33.463,33.463,0,0,1,7.256-9.092,15.782,15.782,0,0,1,3.636-2.172,23.286,23.286,0,0,0-.889,4.088c-.684,5.311-.546-.738-1.3-2.16-.343-.648-2.776,2.031-6.043,6.149-.587.745-.94,2.8-1.6,3.527-.584.649-2.741,1.547-4.464,2.333q.082,1.863.276,3.7c3.411-1.922,7.878-4.582,9.3-5.423a64.448,64.448,0,0,0-9.172,6.527c.045.379.093.758.148,1.133,2.638-.436,4.64-.536,5.747-.9,1.576-.52-.35,2.394,3.1,1.132,2.519-.921,3.559-8.507,4.207-9.91a38.839,38.839,0,0,0,1.014-5.657c.475-3.694.757-4.653,1.175-4.1.353.468-.594,3.976-1.271,7.487a42.205,42.205,0,0,0-.863,7.134c.029.7-1,1.727-1.406,2.994-.587,1.823-.574,3.867-.151,3.854.491-.013,4.233-5.869,3.963-3.334-.359,3.386-.465,6.222-.231,6.316.8.314,1.02-.292,1.3-3.514a20.173,20.173,0,0,1,3.581-10.648c1.486-2.24,1.743-2.879,1.094-2.705a6.294,6.294,0,0,0-2.2,2.134,12.025,12.025,0,0,1-1.489,1.871,21.26,21.26,0,0,1,.026-3.418c.215-4.374,1.508-11.28.221-12.7-.035-.039-.061-.077-.1-.109,1.63-2.843,2.885-6.232,2.692-6.425-.735-.735-4.348,6.813-9.39,10.061-2.85,1.836-4.008,2.436-2.843,1.476a58.657,58.657,0,0,0,11.193-12.7,50.674,50.674,0,0,1,3.623-5.151.193.193,0,0,1,.148-.016,5.141,5.141,0,0,0,.549.684,3.813,3.813,0,0,1,.177.494c.3,1.036.424,1.174.452.491.061.186.157.475.231.7a34.171,34.171,0,0,0-.122,4.21c0,3.758.1,5.3.218,3.417a63.9,63.9,0,0,0,0-6.835,4.719,4.719,0,0,0-.083-.764c.148.44.266.78.465,1.38.613,1.823,1.653,5.831,2.3,8.9s1.406,5.645,1.707,5.728.215-1.893-.247-4.646l-.805-4.8,1.04,2.269c.985,2.154,2.089,4.955,3.2,7.994a13.01,13.01,0,0,0,.478,1.325c2.882,8.074,5.677,17.486,6.364,21.587.215,1.284.225,2.048-.035,2.086a10.431,10.431,0,0,1-1.691-2.086c-.8-1.113-1.81-2.587-2.872-4.2-4.913-7.474-9.99-12.407-9.473-10.43-.379,6.084-6.6,11.691-5.943,12.737s6.633-.5,9.165,1.893a3.357,3.357,0,0,1,.578.719,4.214,4.214,0,0,0,1.537,1.454,14.1,14.1,0,0,0,5.953,1.357,12.447,12.447,0,0,1,2.449.2c.748.552,1.252.456,1.511-.2a4.038,4.038,0,0,0,.212-1.357,14.563,14.563,0,0,0-.148-2.173,54.2,54.2,0,0,0-1.906-8.151c-1.062-3.527-2.3-7.243-3.578-10.879a4.1,4.1,0,0,0,2.542.34c.343-.048-2.654-8.5-1.778-8.665.693-.125,5.276,8.048,5.6,7.914a19.93,19.93,0,0,1,2.365,4c1.341,2.955,5.831,10.8,6.367,11.126a11.351,11.351,0,0,0-1.364-2.856c-.924-1.672-2.3-4.416-3.061-6.1l-1.4-3.049,1.325.683c.725.376,8.373,10.468,8.626,10.266.574-.465-9.095-14.428-12.6-20.83a7.417,7.417,0,0,1,1.175-1.078,42.082,42.082,0,0,0,4.239-4.416c.684.472,10.657,7.323,12.477,10.044a7.93,7.93,0,0,0,2.336,2.722c2.952,1.338,3.039,7.493,5.805,8.257a2.221,2.221,0,0,0,.359.067c.109.039.5-.491,1-1.248.289-.436.619-.953.953-1.479,1.033-1.627,2.121-3.354,2.314-3.232.119.151.228.289.314.424a13.91,13.91,0,0,1-.289-1.778c-.183-.276-1.576,1.219-2.818,2.536a15.52,15.52,0,0,1-1.832,1.781c-.067.042-.119.058-.148.045-2.654-.411-1.743-5.581-4.371-6.563a5.819,5.819,0,0,1-3.145-2.705,94.509,94.509,0,0,1-5.6-9.894,2.468,2.468,0,0,0,1.187-.125c.077-.9-1.107-.911-1.38-1.652-1.085-1.752-.777-3.883-1.175-5.834l.138.093a43.482,43.482,0,0,0,4.727,5.125c2.086,2.105,3.495,2.551,3.922,2.051a19.155,19.155,0,0,1,2.08,3.4c.639.485-.95,1.685.327,1.695.552.115,1.563.391,1.858-.247a28.682,28.682,0,0,0-3.812-6.148c-.908-1.2-1.73-2.49-2.692-3.649a1.728,1.728,0,0,1,.546-2.189c1.373-1.884,2.753-3.774,4.265-5.549.6-.334,1.582-.427,1.874-1.107a13.235,13.235,0,0,1,.915,2.5c.761,2.712,1.271,3.3,4.948,5.661a14.173,14.173,0,0,1,2.416,1.925c.022.985.077,1.948.138,2.814-.112.395-.244.838-.411,1.3-1.951,5.446-1.977,5.581-1.094,6.764,1.181,1.582,1.974,1.707,1.191.193-.741-1.435-.815-1.836.122-4.265.273.619.61,1.206.889,1.82a13.613,13.613,0,0,0,3.363,4.111c.221.59.517,1.315.873,2.079,2.327,4.967,5.626,10.785,6.848,12.1a8.521,8.521,0,0,0,2.269,1.707c1.085.471,1.069.411-.151-2.5a62.48,62.48,0,0,0-5.863-10.619c1.463.972,2.943,1.935,4.429,2.869.655.385,1.226.886,1.887,1.258a.957.957,0,0,0,1.313-.738c.225-.588.793-.879,1.133-1.38a8.134,8.134,0,0,0,1.065-2.449,9.249,9.249,0,0,1,.847-1.434c.77-1.245,1.531-2.5,2.3-3.745.051-.016.1-.038.151-.054a.78.78,0,0,0,.353-.764q6.21-10.1,12.384-20.214a1.8,1.8,0,0,0,.629-.931,15.042,15.042,0,0,1,.847-1.72,18.446,18.446,0,0,1,2-2.859C214.284,273.489,214.047,273.2,213.809,272.905Zm-14.569-9.531a.174.174,0,0,0,.026.025c1.393,1.656,5.029,5.494,4.676,5.4s-2.875-.022-3.212-.642c-.311-.568-1.431-.7-1.832-1.627C198.55,265.733,199.2,264.157,199.24,263.374Zm-6.563,9.717a3,3,0,0,1-1.187,1.161c.465-.67.831-1.229,1.065-1.64.122.042.221.093.315.134C192.806,272.867,192.751,272.983,192.677,273.092Zm3.758-9.528a.277.277,0,0,0,.055.029.237.237,0,0,0-.067,0Zm-4.425,6.248a29.419,29.419,0,0,1,2.84-3.95,45.307,45.307,0,0,1-2.009,4.319c1.332-.889,4.775-2.881,3.938-2.339-1.325.982-4.2,2.728-5.536,3.69C191.038,270.845,191.676,270.332,192.01,269.812Zm-5.032,6.9c.44-.453.886-.9,1.341-1.339,1.216-.664,1.418-2.3,2.692-2.734.173-.038.321-.077.462-.1a14.985,14.985,0,0,0-4.332,5.167,3.047,3.047,0,0,0-.164.369,1,1,0,0,1,.055-.793A.682.682,0,0,0,186.978,276.711Zm-57.234,12.04c.324.446.655.912,1,1.341,1.467,1.852,2.182,4.541,2.718,7.3C132.106,293.992,130.825,291.008,129.744,288.752Zm21.95,3.758c1.075-1.752,1.444-3.572,2.253-5.029C154.255,288.726,152.984,290.8,151.694,292.51ZM154,287.372l.1-.164a.655.655,0,0,1-.042-.176,5.278,5.278,0,0,1,.725,2.253C154.537,288.62,154.277,287.972,154,287.372Zm1.409-.928c0-.016-.01-.029-.013-.042-.074-.257-.125-.548-.193-.834a5.533,5.533,0,0,1,1.489.424,13.192,13.192,0,0,1,4.185,3.389A26.012,26.012,0,0,0,155.41,286.444Zm21.62,2.307c-.687-.507-1.614-1.123-2.529-1.666-2.314-1.376-2.972-1.906-3.376-3.171a3.833,3.833,0,0,0,1.175.055,5.1,5.1,0,0,0,3.976,3.431c.148.44.459,1.357.767.927C177.036,288.469,177.033,288.61,177.03,288.752Zm.3,7.574c.016-.045.035-.077.055-.125.006.083.016.167.026.247C177.386,296.406,177.354,296.367,177.332,296.325Zm.571-11.906a1.335,1.335,0,0,0-.177-.205c-.562-.741-2.368-.828-2.994-1.107a12.565,12.565,0,0,1-4.169-1.049.667.667,0,0,0,.109.013.352.352,0,0,0,.1-.016c-.064,0-.183,0-.218,0l-.042-.013-.52-1.271,2.105.6c-.083.125-.061.142.029.013l1.162.327c1.617.466,3.883,1.685,3.4,1.685l1.313.132a1.339,1.339,0,0,0,.231.507A1.936,1.936,0,0,0,177.9,284.419Zm2.182,1.608a25.55,25.55,0,0,1,1.881,2.317l-.671-.481A10.4,10.4,0,0,1,180.085,286.027Zm1.335,9.833c.006-.771,1.053-2.872,1.569-4.512a5.647,5.647,0,0,0,.221-.995c.164.308.308.619.449.94a7.724,7.724,0,0,0-1.312,5.208c.25,1.977,1.637,3.8,2.57,6.19C185.479,304.13,181.394,297.936,181.42,295.86Zm3.44-.478c-.1-.485-.16-1-.218-1.505.443,1.232.85,2.474,1.258,3.719A7.351,7.351,0,0,1,184.86,295.382Zm9.964,7.641a1.845,1.845,0,0,0-.449-.7c-.106-.16-.2-.327-.3-.491a1.509,1.509,0,0,0,.642-.054,7.175,7.175,0,0,0,1.409-.546C195.684,301.826,195.248,302.42,194.824,303.023ZM192.5,270.55a1.072,1.072,0,0,0,.34-.369C192.373,270.492,192.164,270.672,192.5,270.55Zm-21.186,11.382c-.01,0-.016.016-.026.029C171.366,281.978,171.347,281.932,171.315,281.932ZM192.5,270.55a1.072,1.072,0,0,0,.34-.369C192.373,270.492,192.164,270.672,192.5,270.55Zm-21.186,11.382c-.01,0-.016.016-.026.029C171.366,281.978,171.347,281.932,171.315,281.932ZM192.5,270.55a1.072,1.072,0,0,0,.34-.369C192.373,270.492,192.164,270.672,192.5,270.55Zm-21.186,11.382c-.01,0-.016.016-.026.029C171.366,281.978,171.347,281.932,171.315,281.932ZM192.5,270.55a1.072,1.072,0,0,0,.34-.369C192.373,270.492,192.164,270.672,192.5,270.55Zm-21.186,11.382c-.01,0-.016.016-.026.029C171.366,281.978,171.347,281.932,171.315,281.932ZM192.5,270.55a1.072,1.072,0,0,0,.34-.369C192.373,270.492,192.164,270.672,192.5,270.55Zm-21.186,11.382c-.01,0-.016.016-.026.029C171.366,281.978,171.347,281.932,171.315,281.932ZM192.5,270.55a1.072,1.072,0,0,0,.34-.369C192.373,270.492,192.164,270.672,192.5,270.55Zm-21.186,11.382c-.01,0-.016.016-.026.029C171.366,281.978,171.347,281.932,171.315,281.932ZM192.5,270.55a1.072,1.072,0,0,0,.34-.369C192.373,270.492,192.164,270.672,192.5,270.55Zm-21.186,11.382c-.01,0-.016.016-.026.029C171.366,281.978,171.347,281.932,171.315,281.932Z" transform="translate(-102.043 -262.607)" fill="url(#linear-gradient)"/>
        <path id="Path_3" data-name="Path 3" d="M499.748,368.506" transform="translate(-372.121 -334.522)" fill="#fff"/>
      </g>
      <path id="Path_4" data-name="Path 4" d="M224.637,279.485a66.3,66.3,0,0,1-131.952,9.3c-.057-.395-.108-.793-.155-1.191s-.091-.772-.131-1.16q-.2-1.927-.29-3.888-.015-.334-.03-.667c-.027-.793-.04-1.592-.04-2.391,0-.26,0-.52.007-.776,0-.084,0-.165,0-.246q.03-2.084.185-4.135A66.307,66.307,0,0,1,209.492,237.3q.375.46.745.924c.094.115.185.229.273.348q1.5,1.9,2.85,3.912c.088.128.172.256.256.384q.552.825,1.072,1.669c.04.064.081.128.122.2a65.916,65.916,0,0,1,5.932,12.306q.344.956.658,1.922,1,3.081,1.7,6.283A66.493,66.493,0,0,1,224.637,279.485Z" transform="translate(-92.038 -213.183)" fill="none" stroke="#fff" stroke-miterlimit="10" stroke-width="2"/>
    </g>
    <g id="Group_3" data-name="Group 3" transform="translate(107.784 285.327)">
      <path id="Path_5" data-name="Path 5" d="M141.1,492.042v2.451H147.1v15.951h2.686V494.493h87.394v-2.451Z" transform="translate(-141.104 -474.698)" fill="url(#linear-gradient)"/>
      <path id="Path_6" data-name="Path 6" d="M184.581,521.221a3.681,3.681,0,0,1-1.187-.706,4.15,4.15,0,0,1-.833-1.184,3.348,3.348,0,0,1-.315-1.448h8.185a7.617,7.617,0,0,0-1.253-4.587,5.115,5.115,0,0,0-8.026-.13,6.425,6.425,0,0,0-1.434,4.17,6.667,6.667,0,0,0,1.669,4.627,5.6,5.6,0,0,0,4.377,1.865,10.743,10.743,0,0,0,4.456-1.332v-2.422a9.817,9.817,0,0,1-4.116,1.408A4.277,4.277,0,0,1,184.581,521.221Zm.637-7.743q2.216,0,2.817,2.606H182.3Q182.843,513.477,185.218,513.477Z" transform="translate(-167.327 -487.767)" fill="url(#linear-gradient)"/>
      <path id="Path_7" data-name="Path 7" d="M225.183,521.4c-.333-.1-.5-.623-.5-1.564l.051-1.615.054-1.643q0-5.365-3.834-5.369a6.741,6.741,0,0,0-4.2,1.564l-.025,2.476a6.412,6.412,0,0,1,3.725-1.8q1.906,0,1.9,2.4v.416q-1.357.391-2.3.731a12.365,12.365,0,0,0-1.535.652q-2.346,1.3-2.346,2.943a2.933,2.933,0,0,0,.948,2.371,3.721,3.721,0,0,0,2.491.811,6.7,6.7,0,0,0,2.762-.941c.315.626.7.941,1.148.941a5.674,5.674,0,0,0,2.867-1.017v-1.774Zm-2.817-.286-1.043.5a2.9,2.9,0,0,1-1.148.286,1.424,1.424,0,0,1-1.043-.442,1.406,1.406,0,0,1-.442-1.017q0-1.77,3.674-2.686Z" transform="translate(-192.094 -487.713)" fill="url(#linear-gradient)"/>
      <path id="Path_8" data-name="Path 8" d="M264.843,511.377a5.473,5.473,0,0,0-3.935,1.8,4.336,4.336,0,0,0-3.389-1.8,6,6,0,0,0-3.363,1.274v-1.043H251.68v11.965h2.476V515a4.192,4.192,0,0,1,2.892-1.3q1.982,0,1.98,3.338v6.542H261.5v-8.547a5.033,5.033,0,0,1,2.791-1.332q2.058,0,2.06,3.077v6.8h2.476v-6.491Q268.832,511.375,264.843,511.377Z" transform="translate(-216.195 -487.828)" fill="url(#linear-gradient)"/>
      <path id="Path_9" data-name="Path 9" d="M325.421,437.995v17.344h-9.3V437.995H313.51V473.74h2.607V457.79h9.3V473.74h2.632V437.995Z" transform="translate(-258.183 -437.995)" fill="url(#linear-gradient)"/>
      <path id="Path_10" data-name="Path 10" d="M373.854,512.1c-.311.713-.71,1.6-1.187,2.672s-.876,1.987-1.2,2.751-.674,1.6-1.054,2.5q-.967-2.216-1.669-3.779-.994-2.161-1.9-4.145h-2.737l4.978,10.556-3.62,8.135H368.2l8.392-18.691Z" transform="translate(-292.542 -488.318)" fill="url(#linear-gradient)"/>
      <path id="Path_11" data-name="Path 11" d="M412.039,504.187l5.162-5.709h-3.208L409.3,503.8V492.042h-2.476v18.4H409.3v-5.579l5.633,5.579h3.62Z" transform="translate(-321.553 -474.698)" fill="url(#linear-gradient)"/>
    </g>
  </g>
</svg>
